<svg width="255" height="233" viewBox="0 0 255 233" fill="none" xmlns="http://www.w3.org/2000/svg">
<g opacity="0.8" filter="url(#filter0_bd_592_5885)">
<path d="M119.139 117.455C120.539 115.455 121.939 113.155 123.339 110.555C124.739 107.955 125.839 105.455 126.639 103.055C127.639 100.455 128.439 98.0555 129.039 95.8555C129.639 93.6555 129.939 91.8555 129.939 90.4555C129.939 89.4555 129.739 88.5555 129.339 87.7555C128.939 86.7555 127.939 86.2555 126.339 86.2555C121.939 86.2555 118.639 84.4555 116.439 80.8555C114.439 77.2555 113.439 73.1555 113.439 68.5555C113.439 63.1555 115.039 58.7555 118.239 55.3555C121.639 51.9555 126.439 50.2555 132.639 50.2555C147.439 50.2555 154.839 57.3555 154.839 71.5555C154.839 75.5555 154.139 79.8555 152.739 84.4555C151.539 89.0555 149.839 93.7555 147.639 98.5555C145.639 103.155 143.339 107.555 140.739 111.755C138.139 115.955 135.639 119.655 133.239 122.855L119.139 117.455ZM66.3393 117.455C67.7393 115.455 69.1393 113.155 70.5393 110.555C71.9393 107.955 73.0393 105.455 73.8393 103.055C74.8393 100.455 75.6393 98.0555 76.2393 95.8555C76.8393 93.6555 77.1393 91.8555 77.1393 90.4555C77.1393 89.4555 76.9393 88.5555 76.5393 87.7555C76.1393 86.7555 75.1393 86.2555 73.5393 86.2555C69.1393 86.2555 65.8393 84.4555 63.6393 80.8555C61.6393 77.2555 60.6393 73.1555 60.6393 68.5555C60.6393 63.1555 62.2393 58.7555 65.4393 55.3555C68.8393 51.9555 73.6393 50.2555 79.8393 50.2555C94.6393 50.2555 102.039 57.3555 102.039 71.5555C102.039 75.5555 101.339 79.8555 99.9393 84.4555C98.7393 89.0555 97.0393 93.7555 94.8393 98.5555C92.8393 103.155 90.5393 107.555 87.9393 111.755C85.3393 115.955 82.8393 119.655 80.4393 122.855L66.3393 117.455Z" fill="#9359F2"/>
</g>
<defs>
<filter id="filter0_bd_592_5885" x="0.639648" y="0.255859" width="254.199" height="232.6" filterUnits="userSpaceOnUse" color-interpolation-filters="sRGB">
<feFlood flood-opacity="0" result="BackgroundImageFix"/>
<feGaussianBlur in="BackgroundImageFix" stdDeviation="5"/>
<feComposite in2="SourceAlpha" operator="in" result="effect1_backgroundBlur_592_5885"/>
<feColorMatrix in="SourceAlpha" type="matrix" values="0 0 0 0 0 0 0 0 0 0 0 0 0 0 0 0 0 0 127 0" result="hardAlpha"/>
<feOffset dx="20" dy="30"/>
<feGaussianBlur stdDeviation="40"/>
<feComposite in2="hardAlpha" operator="out"/>
<feColorMatrix type="matrix" values="0 0 0 0 0 0 0 0 0 0 0 0 0 0 0 0 0 0 1 0"/>
<feBlend mode="normal" in2="effect1_backgroundBlur_592_5885" result="effect2_dropShadow_592_5885"/>
<feBlend mode="normal" in="SourceGraphic" in2="effect2_dropShadow_592_5885" result="shape"/>
</filter>
</defs>
</svg>
