<svg width="1310" height="695" viewBox="0 0 1310 695" fill="none" xmlns="http://www.w3.org/2000/svg">
<path d="M1310 230.645C1233.91 237.152 1214.98 389.399 1121.48 376.386C1027.99 363.372 1031.7 252.99 912.117 232.005C789.763 210.534 631.909 330.841 500.433 330.841C368.956 330.841 281.692 218.931 190.592 211.124C99.4957 203.321 41.1574 290.503 -6.14258 390.703" stroke="#F1F1F2" stroke-width="2" stroke-miterlimit="10"/>
<path d="M-6.14258 382.627C40.6416 283.98 98.103 197.557 188.698 205.308C279.289 213.058 364.14 325.481 493.819 330.217C621.936 334.897 776.304 220.531 898.665 241.499C1020.81 262.063 1019.01 361.543 1112.41 373.98C1205.82 386.418 1223.55 249.338 1310 243.516" stroke="#EEEEEF" stroke-width="2" stroke-miterlimit="10"/>
<path d="M-6.14258 374.544C40.1257 277.45 96.714 191.789 186.801 199.483C276.887 207.178 360.795 320.11 487.202 329.586C611.925 338.935 762.778 230.862 885.214 250.987C1009.86 271.477 1010.03 359.706 1103.34 371.568C1196.65 383.429 1213.19 261.517 1310 256.383" stroke="#ECECED" stroke-width="2" stroke-miterlimit="10"/>
<path d="M-6.14258 366.464C39.6136 270.92 95.325 186.021 184.907 193.659C274.489 201.298 357.413 314.725 480.592 328.955C601.889 342.966 749.297 240.996 871.766 260.474C998.95 280.701 1001.06 357.874 1094.28 369.159C1187.49 380.444 1202.84 273.699 1310 269.254" stroke="#E9E9EA" stroke-width="2" stroke-miterlimit="10"/>
<path d="M-6.14258 358.385C39.0978 264.393 93.936 180.257 183.009 187.839C272.083 195.421 353.99 309.334 473.975 328.327C591.812 346.984 735.812 251.123 858.31 269.966C988.033 289.922 992.079 356.041 1085.2 366.75C1178.32 377.459 1192.48 285.885 1310 282.126" stroke="#E6E7E8" stroke-width="2" stroke-miterlimit="10"/>
<path d="M-6.14258 350.302C38.582 257.864 92.547 174.487 181.116 182.012C269.684 189.538 350.53 303.911 467.362 327.693C581.702 350.97 722.335 261.226 844.859 279.45C977.127 299.126 983.1 354.202 1076.13 364.335C1169.16 374.468 1182.11 298.061 1310 294.99" stroke="#E4E4E5" stroke-width="2" stroke-miterlimit="10"/>
<path d="M-6.14258 342.222C38.0662 251.333 91.158 168.719 179.218 176.192C267.278 183.661 347.03 298.466 460.745 327.065C571.559 354.934 708.857 271.321 831.407 288.941C966.222 308.325 974.121 352.369 1067.06 361.926C1159.99 371.486 1171.75 310.243 1310 307.857" stroke="#E1E1E3" stroke-width="2" stroke-miterlimit="10"/>
<path d="M-6.14258 334.139C37.5541 244.803 89.769 162.951 177.324 170.364C264.88 177.778 343.504 292.983 454.135 326.431C561.39 358.856 695.391 281.399 817.959 298.429C955.323 317.51 965.146 350.533 1057.99 359.517C1150.83 368.501 1161.4 322.429 1310 320.729" stroke="#DFDFE0" stroke-width="2" stroke-miterlimit="10"/>
<path d="M-6.14258 326.059C37.0382 238.276 88.3763 157.183 175.427 164.544C262.478 171.904 339.941 287.468 447.518 325.803C551.192 362.743 681.921 291.473 804.504 307.92C944.418 326.692 956.163 348.7 1048.91 357.108C1141.66 365.515 1151.04 334.611 1310 333.599" stroke="#DCDCDE" stroke-width="2" stroke-miterlimit="10"/>
<path d="M-6.14258 317.98C36.5224 231.747 86.9873 151.419 173.533 158.72C260.075 166.021 336.356 281.908 440.904 325.172C540.975 366.585 668.455 301.531 791.052 317.408C933.519 335.857 947.188 346.864 1039.84 354.696C1132.5 362.527 1140.68 346.794 1310 346.467" stroke="#D9DADB" stroke-width="2" stroke-miterlimit="10"/>
<path d="M-6.14258 309.897C36.0066 225.216 85.5982 145.647 171.636 152.892C257.673 160.137 332.753 276.291 434.287 324.537C530.744 370.37 654.988 311.573 777.597 326.891C922.621 345.01 938.206 345.024 1030.77 352.279C1123.33 359.535 1130.32 358.969 1310 359.331" stroke="#D7D7D9" stroke-width="2" stroke-miterlimit="10"/>
<path d="M-6.14258 301.818C35.4945 218.686 84.2092 139.884 169.742 147.072C255.271 154.261 329.146 270.632 427.674 323.91C520.512 374.11 641.526 321.612 764.149 336.383C911.734 354.161 929.231 343.192 1021.7 349.874C1114.17 356.553 1119.97 371.155 1310 372.206" stroke="#D4D5D6" stroke-width="2" stroke-miterlimit="10"/>
<path d="M-6.14258 293.738C34.9787 212.16 82.8202 134.116 167.844 141.248C252.869 148.38 325.536 264.914 421.06 323.279C510.281 377.793 628.067 331.637 750.697 345.87C900.843 363.297 920.252 341.355 1012.63 347.462C1105 353.568 1109.61 383.337 1310 385.07" stroke="#D1D2D4" stroke-width="2" stroke-miterlimit="10"/>
<path d="M-6.14258 285.655C34.4629 205.629 81.4312 128.348 165.947 135.424C250.466 142.5 321.936 259.142 414.443 322.648C500.06 381.424 614.604 341.655 737.242 355.358C889.948 372.422 911.273 339.519 1003.56 345.049C1095.84 350.579 1099.25 395.516 1310 397.937" stroke="#CFCFD1" stroke-width="2" stroke-miterlimit="10"/>
<path d="M-6.14258 277.575C33.9507 199.099 80.0422 122.58 164.053 129.6C248.064 136.62 318.358 253.318 407.83 322.013C489.866 385.002 601.145 351.656 723.79 364.842C879.061 381.534 902.294 337.679 994.485 342.633C1086.67 347.587 1088.89 407.692 1310 410.801" stroke="#CCCDCF" stroke-width="2" stroke-miterlimit="10"/>
<path d="M-6.14258 269.492C33.4349 192.569 78.6532 116.812 162.156 123.776C245.662 130.74 314.81 247.449 401.212 321.382C479.693 388.538 587.686 361.656 710.335 374.329C868.17 390.639 893.312 335.847 985.41 340.224C1077.5 344.602 1078.53 419.877 1310 423.672" stroke="#C9CACC" stroke-width="2" stroke-miterlimit="10"/>
<path d="M-6.14258 261.412C32.9191 186.042 77.2605 111.045 160.262 117.952C243.26 124.859 311.299 241.537 394.599 320.751C469.561 392.035 574.231 371.646 696.887 383.817C857.29 399.733 884.337 334.01 976.339 337.812C1068.34 341.613 1068.17 432.056 1310 436.539" stroke="#C7C8CA" stroke-width="2" stroke-miterlimit="10"/>
<path d="M-6.14258 253.333C32.4033 179.512 75.8715 105.281 158.365 112.132C240.858 118.983 307.828 235.59 387.986 320.123C459.462 395.504 560.779 381.633 683.435 393.308C846.402 408.82 875.361 332.178 967.268 335.403C1059.18 338.629 1057.81 444.239 1310 449.411" stroke="#C4C5C7" stroke-width="2" stroke-miterlimit="10"/>
<path d="M-6.14258 245.25C31.8912 172.982 74.4825 99.509 156.471 106.304C238.459 113.099 304.409 229.611 381.372 319.488C449.408 398.941 547.324 391.605 669.984 402.792C835.519 417.893 866.383 330.338 958.197 332.987C1050.01 335.64 1047.45 456.417 1310 462.271" stroke="#C2C3C5" stroke-width="2" stroke-miterlimit="10"/>
<path d="M-6.14258 237.171C31.3754 166.456 73.0935 93.7421 154.573 100.484C236.053 107.227 301.034 223.616 374.755 318.862C439.39 402.369 533.868 401.578 656.528 412.284C824.635 426.959 857.4 328.506 949.123 330.582C1040.84 332.659 1037.09 468.604 1310 475.146" stroke="#BFC0C2" stroke-width="2" stroke-miterlimit="10"/>
<path d="M-6.14258 229.088C30.8596 159.922 71.7045 87.9745 152.68 94.657C233.655 101.34 297.715 217.599 368.142 318.227C429.42 405.782 520.417 411.537 643.077 421.771C813.751 436.011 848.421 326.67 940.052 328.17C1031.68 329.67 1026.73 480.783 1310 488.014" stroke="#BCBDBF" stroke-width="2" stroke-miterlimit="10"/>
<path d="M-6.14258 221.008C30.3474 153.392 70.3155 82.2067 150.782 88.833C231.249 95.4594 294.439 211.582 361.524 317.596C419.483 409.191 506.958 421.492 629.625 431.259C802.871 445.053 839.446 324.834 930.981 325.758C1022.52 326.682 1016.38 492.965 1310 500.881" stroke="#BABBBD" stroke-width="2" stroke-miterlimit="10"/>
<path d="M-6.14258 212.929C29.8316 146.865 68.9265 76.4388 148.888 83.0124C228.85 89.5825 291.216 205.564 354.915 316.968C409.598 412.604 493.51 431.443 616.177 440.75C791.995 454.09 830.471 323.001 921.914 323.349C1013.36 323.696 1006.02 505.147 1310 513.752" stroke="#B7B8BA" stroke-width="2" stroke-miterlimit="10"/>
<path d="M-6.14258 204.846C29.3158 140.335 67.5375 70.6712 146.991 77.1851C226.448 83.699 288.029 199.544 348.298 316.334C399.735 416.017 480.054 441.38 602.722 450.234C781.112 463.107 821.489 321.161 912.839 320.936C1004.19 320.708 995.664 517.327 1310 526.62" stroke="#B4B6B8" stroke-width="2" stroke-miterlimit="10"/>
<path d="M-6.14258 196.766C28.8037 133.805 66.1485 64.9034 145.097 71.3611C224.046 77.8188 284.89 193.537 341.684 315.703C389.913 419.444 466.603 451.318 589.27 459.722C770.228 472.117 812.51 319.325 903.768 318.524C995.023 317.719 985.303 529.509 1310 539.484" stroke="#B2B3B5" stroke-width="2" stroke-miterlimit="10"/>
<path d="M-6.14258 188.683C28.2879 127.275 64.7558 59.1357 143.2 65.5371C221.644 71.9386 281.784 187.541 335.067 315.072C380.112 422.885 453.147 461.248 575.815 469.209C759.344 481.12 803.531 317.489 894.693 316.112C985.856 314.734 974.943 541.688 1310 552.351" stroke="#AFB0B3" stroke-width="2" stroke-miterlimit="10"/>
<path d="M-6.14258 180.603C27.7721 120.748 63.3668 53.3679 141.306 59.7132C219.241 66.0584 278.711 181.559 328.454 314.44C370.341 426.34 439.696 471.175 562.367 478.697C748.468 490.108 794.556 315.656 885.623 313.699C976.693 311.746 964.586 553.87 1310 565.218" stroke="#ACAEB0" stroke-width="2" stroke-miterlimit="10"/>
<path d="M-6.14258 172.524C27.2562 114.219 61.9777 47.6041 139.408 53.8931C216.839 60.1822 275.664 175.598 321.84 313.813C360.596 429.813 426.244 481.098 548.915 488.188C737.592 499.09 785.577 313.824 876.552 311.294C967.526 308.764 954.229 566.056 1310 578.093" stroke="#AAABAE" stroke-width="2" stroke-miterlimit="10"/>
<path d="M-6.14258 164.441C26.7441 107.688 60.5887 41.8325 137.515 48.0653C214.441 54.2981 272.643 169.648 315.227 313.178C350.866 433.295 412.792 491.01 535.464 497.672C726.712 508.058 776.598 311.984 867.481 308.878C958.363 305.772 943.869 578.231 1310 590.957" stroke="#A7A9AB" stroke-width="2" stroke-miterlimit="10"/>
<path d="M-6.14258 156.361C26.2283 101.158 59.1997 36.0687 135.617 42.2453C212.035 48.4219 269.64 163.722 308.61 312.551C341.146 436.804 399.337 500.927 522.008 507.164C715.825 517.019 767.619 310.151 858.406 306.469C949.196 302.787 933.508 590.418 1310 603.825" stroke="#A4A6A9" stroke-width="2" stroke-miterlimit="10"/>
<path d="M-6.14258 148.279C25.7125 94.6289 57.8107 30.298 133.723 36.4184C209.636 42.5388 266.656 157.811 301.996 311.917C331.445 440.322 385.882 510.83 508.557 516.648C704.945 525.962 758.641 308.312 849.335 304.054C940.03 299.796 923.151 602.594 1310 616.689" stroke="#A2A4A6" stroke-width="2" stroke-miterlimit="10"/>
<path d="M-6.14258 140.199C25.1967 88.1017 56.4217 24.5332 131.826 30.5974C207.23 36.6616 263.682 151.923 295.379 311.289C321.748 443.865 372.426 520.735 495.105 526.139C694.065 534.905 749.662 306.479 840.264 301.645C930.867 296.814 912.795 614.775 1310 629.56" stroke="#9FA1A4" stroke-width="2" stroke-miterlimit="10"/>
<path d="M-6.14258 132.119C24.6845 81.5716 55.0327 18.7655 129.932 24.7735C204.832 30.7814 260.72 146.047 288.769 310.658C312.069 447.418 358.975 530.634 481.657 535.626C683.188 543.83 740.687 304.643 831.197 299.236C921.707 293.828 902.438 626.961 1310 642.431" stroke="#9D9EA1" stroke-width="2" stroke-miterlimit="10"/>
<path d="M-6.14258 124.033C24.1687 75.042 53.64 12.9949 128.035 18.9466C202.43 24.8984 257.769 140.188 282.152 310.024C302.39 450.986 345.516 540.526 468.202 545.114C672.301 552.746 731.708 302.807 822.122 296.824C912.537 290.84 892.077 639.141 1310 655.299" stroke="#9A9C9F" stroke-width="2" stroke-miterlimit="10"/>
<path d="M-6.14258 115.954C23.6529 68.5158 52.251 7.23107 126.141 13.1266C200.027 19.0221 254.821 134.35 275.539 309.397C292.719 454.575 332.068 550.207 454.75 554.606C661.432 561.303 722.729 300.975 813.051 294.415C903.374 287.856 881.721 651.324 1310 668.171" stroke="#97999C" stroke-width="2" stroke-miterlimit="10"/>
<path d="M-6.14258 107.871C23.1408 61.9818 50.862 1.45948 124.244 7.2988C197.625 13.1381 252.235 128.488 268.921 308.762C283.342 458.146 318.605 560.193 441.295 564.09C650.537 570.365 713.747 299.135 803.977 291.999C894.203 284.863 871.36 663.502 1310 681.031" stroke="#95979A" stroke-width="2" stroke-miterlimit="10"/>
<path d="M-6.14258 99.7916C22.625 55.4557 49.473 -4.30429 122.35 1.47882C195.227 7.26193 248.945 122.71 262.312 308.135C273.387 461.787 305.146 570.187 427.85 573.581C639.657 579.438 704.775 297.303 794.913 289.594C885.048 281.882 861.007 675.689 1310 693.906" stroke="#929497" stroke-width="2" stroke-miterlimit="10"/>
</svg>
