<svg width="521" height="128" viewBox="0 0 521 128" fill="none" xmlns="http://www.w3.org/2000/svg">
<path d="M465.862 98.3775C465.298 114.518 461.174 117.164 455.953 121.085C452.094 123.984 452.939 124.057 410.728 124.057C362.101 124.057 13.0645 131.37 8.17383 121.086C5.63816 115.756 1.17334 117.965 1.17334 32.5466C1.17334 4.34411 -2.47225 1.00014 23.6737 1.00015C33.1733 1.00015 390.547 1.00015 439.174 1.00015C450.174 1.00015 465.866 19.5105 465.862 67.3091L474 71.7415C492.5 76.0433 495 75.5654 516.5 75.5654C498 86.4281 479.457 89.7117 465.862 91.6859L465.862 98.3775Z" fill="white" stroke="black" stroke-width="2" stroke-miterlimit="11.34"/>
</svg>
